<?xml version="1.0" encoding="UTF-8" standalone="no"?>
<svg
   xmlns:dc="http://purl.org/dc/elements/1.1/"
   xmlns:cc="http://creativecommons.org/ns#"
   xmlns:rdf="http://www.w3.org/1999/02/22-rdf-syntax-ns#"
   xmlns:svg="http://www.w3.org/2000/svg"
   xmlns="http://www.w3.org/2000/svg"
   viewBox="0 0 1280 720"
   height="720"
   width="1280"
   xml:space="preserve"
   id="svg2"
   version="1.1"><metadata
     id="metadata8"><rdf:RDF><cc:Work
         rdf:about=""><dc:format>image/svg+xml</dc:format><dc:type
           rdf:resource="http://purl.org/dc/dcmitype/StillImage" /></cc:Work></rdf:RDF></metadata><defs
     id="defs6"><clipPath
       id="clipPath18"
       clipPathUnits="userSpaceOnUse"><path
         style="clip-rule:evenodd"
         id="path16"
         d="M 0,1.2207e-4 H 960 V 540.00012 H 0 Z" /></clipPath></defs><g
     transform="matrix(1.3333333,0,0,-1.3333333,0,720)"
     id="g10"><g
       id="g12"><g
         clip-path="url(#clipPath18)"
         id="g14"><path
           id="path20"
           style="fill:#0d1b3e;fill-opacity:1;fill-rule:evenodd;stroke:none"
           d="M 0,6.1035e-5 H 960 V 540.00006 H 0 Z" /></g></g><path
       id="path22"
       style="fill:#19274b;fill-opacity:1;fill-rule:evenodd;stroke:none"
       d="m 13.56,517.43 c 0,5.84 4.734,10.57 10.574,10.57 H 137.99 c 5.84,0 10.57,-4.73 10.57,-10.57 v -54.58 c 0,-5.84 -4.73,-10.57 -10.57,-10.57 H 24.134 c -5.84,0 -10.574,4.73 -10.574,10.57 z" /><path
       id="path24"
       style="fill:#19274b;fill-opacity:1;fill-rule:evenodd;stroke:none"
       d="m 13.56,430.43 c 0,5.84 4.734,10.57 10.574,10.57 H 137.99 c 5.84,0 10.57,-4.73 10.57,-10.57 v -54.58 c 0,-5.84 -4.73,-10.57 -10.57,-10.57 H 24.134 c -5.84,0 -10.574,4.73 -10.574,10.57 z" /><path
       id="path26"
       style="fill:#19274b;fill-opacity:1;fill-rule:evenodd;stroke:none"
       d="m 13.56,343.43 c 0,5.84 4.734,10.57 10.574,10.57 H 137.99 c 5.84,0 10.57,-4.73 10.57,-10.57 v -54.58 c 0,-5.84 -4.73,-10.57 -10.57,-10.57 H 24.134 c -5.84,0 -10.574,4.73 -10.574,10.57 z" /><path
       id="path28"
       style="fill:#19274b;fill-opacity:1;fill-rule:evenodd;stroke:none"
       d="m 13.56,256.43 c 0,5.84 4.734,10.57 10.574,10.57 H 137.99 c 5.84,0 10.57,-4.73 10.57,-10.57 v -54.58 c 0,-5.84 -4.73,-10.57 -10.57,-10.57 H 24.134 c -5.84,0 -10.574,4.73 -10.574,10.57 z" /><path
       id="path30"
       style="fill:#19274b;fill-opacity:1;fill-rule:evenodd;stroke:none"
       d="m 13.56,169.43 c 0,5.84 4.734,10.57 10.574,10.57 H 137.99 c 5.84,0 10.57,-4.73 10.57,-10.57 v -54.58 c 0,-5.84 -4.73,-10.57 -10.57,-10.57 H 24.134 c -5.84,0 -10.574,4.73 -10.574,10.57 z" /><path
       id="path32"
       style="fill:#19274b;fill-opacity:1;fill-rule:evenodd;stroke:none"
       d="M 13.56,82.426 C 13.56,88.266 18.294,93 24.134,93 H 137.99 c 5.84,0 10.57,-4.734 10.57,-10.574 V 27.854 c 0,-5.84 -4.73,-10.574 -10.57,-10.574 H 24.134 c -5.84,0 -10.574,4.734 -10.574,10.574 z" /><path
       id="path34"
       style="fill:#19274b;fill-opacity:1;fill-rule:evenodd;stroke:none"
       d="m 159.72,515.33 c 0,7 5.67,12.67 12.67,12.67 h 265.18 c 7,0 12.67,-5.67 12.67,-12.67 v -65.38 c 0,-7 -5.67,-12.67 -12.67,-12.67 H 172.39 c -7,0 -12.67,5.67 -12.67,12.67 z" /><path
       id="path36"
       style="fill:#19274b;fill-opacity:1;fill-rule:evenodd;stroke:none"
       d="m 159.72,396.14 c 0,17.29 14.01,31.3 31.3,31.3 h 325.96 c 17.29,0 31.3,-14.01 31.3,-31.3 V 234.58 c 0,-17.29 -14.01,-31.3 -31.3,-31.3 H 191.02 c -17.29,0 -31.3,14.01 -31.3,31.3 z" /><path
       id="path38"
       style="fill:#19274b;fill-opacity:1;fill-rule:evenodd;stroke:none"
       d="m 793.44,515.33 c 0,7 5.67,12.67 12.67,12.67 h 129.22 c 7,0 12.67,-5.67 12.67,-12.67 v -65.38 c 0,-7 -5.67,-12.67 -12.67,-12.67 H 806.11 c -7,0 -12.67,5.67 -12.67,12.67 z" /><path
       id="path40"
       style="fill:#19274b;fill-opacity:1;fill-rule:evenodd;stroke:none"
       d="m 159.72,166.98 c 0,13.42 10.88,24.3 24.3,24.3 H 923.7 c 13.42,0 24.3,-10.88 24.3,-24.3 L 948,41.578 C 948,28.158 937.12,17.28 923.7,17.28 H 184.02 c -13.42,0 -24.3,10.878 -24.3,24.298 z" /><path
       id="path42"
       style="fill:#19274b;fill-opacity:1;fill-rule:evenodd;stroke:none"
       d="m 559.44,396.14 c 0,17.29 14.01,31.3 31.3,31.3 H 916.7 c 17.29,0 31.3,-14.01 31.3,-31.3 V 234.58 c 0,-17.29 -14.01,-31.3 -31.3,-31.3 H 590.74 c -17.29,0 -31.3,14.01 -31.3,31.3 z" /><path
       id="path44"
       style="fill:#19274b;fill-opacity:1;fill-rule:evenodd;stroke:none"
       d="m 627.48,515.33 c 0,7 5.67,12.67 12.67,12.67 h 129.22 c 7,0 12.67,-5.67 12.67,-12.67 v -65.38 c 0,-7 -5.67,-12.67 -12.67,-12.67 H 640.15 c -7,0 -12.67,5.67 -12.67,12.67 z" /><path
       id="path46"
       style="fill:#19274b;fill-opacity:1;fill-rule:evenodd;stroke:none"
       d="m 461.52,515.33 c 0,7 5.67,12.67 12.67,12.67 h 129.34 c 7,0 12.67,-5.67 12.67,-12.67 v -65.38 c 0,-7 -5.67,-12.67 -12.67,-12.67 H 474.19 c -7,0 -12.67,5.67 -12.67,12.67 z" /></g></svg>